<svg width="33" height="32" viewBox="0 0 33 32" fill="none" xmlns="http://www.w3.org/2000/svg">
<g clip-path="url(#clip0_97_390)">
<path d="M26.9713 6.04302C25.7161 4.7877 23.8332 4.35596 22.0573 4.91589L16.4998 6.66846L10.9423 4.91589C9.16635 4.35583 7.28348 4.78777 6.02829 6.04302L2.35604 9.71496C0.454604 11.6166 0.551854 14.8114 2.57317 16.8365C4.79229 19.0599 7.18567 21.4572 9.18098 23.4522C9.08866 23.8 9.08857 24.1658 9.18073 24.5136C9.2729 24.8614 9.45412 25.1791 9.70654 25.4355L9.73329 25.4623C9.92412 25.6519 10.1505 25.8018 10.3995 25.9036C10.6485 26.0053 10.9151 26.0568 11.1841 26.0551C11.3651 26.0549 11.5454 26.0323 11.7209 25.9876L11.9334 26.1991C12.2479 26.5138 12.6477 26.7297 13.0834 26.8201C13.4579 27.1497 13.9407 27.3297 14.4396 27.3258C14.4649 27.3258 14.4903 27.3254 14.5158 27.3245C15.0907 27.3025 15.6356 27.0624 16.0398 26.653L16.4998 26.1925L16.9603 26.653C17.3645 27.0624 17.9094 27.3025 18.4843 27.3245C18.5098 27.3254 18.5351 27.3258 18.5604 27.3258C19.0581 27.3294 19.5397 27.1501 19.914 26.8221C20.3503 26.7302 20.7506 26.5138 21.0664 26.1991L21.2799 25.9866C21.6281 26.0789 21.9943 26.0791 22.3425 25.9872C22.6908 25.8953 23.0092 25.7144 23.2665 25.4623L23.2928 25.4359C23.5445 25.1791 23.7252 24.8614 23.8172 24.5138C23.9092 24.1663 23.9094 23.8008 23.8178 23.4531C25.7948 21.4766 28.1579 19.1096 30.4264 16.8367C32.4477 14.8117 32.5452 11.6168 30.6433 9.71514L26.9713 6.04302ZM10.4406 24.7555L10.4139 24.7288C10.3549 24.6696 10.3036 24.6034 10.261 24.5315L10.6386 24.9086C10.5664 24.866 10.4999 24.8146 10.4406 24.7554V24.7555ZM15.3322 25.9461C15.2694 26.0086 15.2006 26.0647 15.1268 26.1137C15.3368 25.8623 15.4821 25.5632 15.5497 25.2426L15.7927 25.4856L15.3322 25.9461ZM22.5855 24.729L22.5592 24.7553C22.1307 25.1839 21.3973 25.1478 20.9243 24.6748L13.2455 16.9959C13.1992 16.9486 13.1441 16.911 13.0832 16.8851C13.0223 16.8593 12.9569 16.8458 12.8908 16.8455C12.8247 16.8451 12.7591 16.8579 12.6979 16.883C12.6368 16.9081 12.5812 16.9452 12.5344 16.9919C12.4877 17.0387 12.4507 17.0943 12.4255 17.1554C12.4004 17.2166 12.3876 17.2821 12.388 17.3483C12.3884 17.4144 12.4019 17.4798 12.4277 17.5407C12.4535 17.6016 12.4911 17.6567 12.5384 17.703L19.221 24.3855L19.2244 24.389C19.4543 24.6143 19.5899 24.9186 19.6035 25.2403C19.6116 25.3849 19.589 25.5295 19.5373 25.6648C19.4856 25.8001 19.406 25.9229 19.3036 26.0253C19.2012 26.1277 19.0783 26.2073 18.9431 26.259C18.8078 26.3107 18.6631 26.3332 18.5185 26.3252C18.1969 26.3116 17.8925 26.1761 17.6673 25.9461L16.8532 25.1321L10.9814 19.2602C10.8876 19.1664 10.7604 19.1138 10.6278 19.1138C10.4952 19.1138 10.368 19.1664 10.2742 19.2602C10.1805 19.354 10.1278 19.4812 10.1278 19.6138C10.1278 19.7464 10.1805 19.8736 10.2742 19.9673L14.2129 23.906L14.2155 23.9086C14.4455 24.1339 14.581 24.4383 14.5947 24.7599C14.6019 24.9041 14.5791 25.0482 14.5277 25.183C14.4762 25.3179 14.3974 25.4407 14.296 25.5435L14.271 25.5685C13.8435 25.9958 13.1113 25.9608 12.6387 25.4905C12.5008 25.3532 12.3564 25.2095 12.2055 25.0592L12.2029 25.0566C11.6137 24.4695 10.9307 23.7875 10.1854 23.0426C10.1437 22.9735 10.0858 22.9155 10.0167 22.8738C7.99635 20.8542 5.54792 18.4017 3.28085 16.1301C1.64873 14.4949 1.55117 11.9342 3.06335 10.422L6.73535 6.75021C7.72585 5.75977 9.22254 5.42233 10.6416 5.86977L14.8373 7.19271L12.4935 7.93183C12.3846 7.96619 12.2906 8.03686 12.2274 8.13205C12.1642 8.22725 12.1355 8.34123 12.146 8.45502L12.2032 9.0687C12.2175 9.44977 12.3096 9.82389 12.474 10.168C12.6384 10.512 12.8716 10.8188 13.1591 11.0693C13.4538 11.3238 13.7978 11.5149 14.1696 11.6307C14.5414 11.7465 14.9331 11.7844 15.3202 11.7422L15.6534 11.7095L16.1465 12.2033L23.0111 19.0776C23.4834 19.5505 23.5192 20.2839 23.0909 20.7118L23.0883 20.7145C22.67 21.1301 21.9639 21.1051 21.4914 20.6658C20.7123 19.8867 19.8629 19.0377 19.056 18.2315C17.2472 16.4233 15.6849 14.8617 15.534 14.7097C15.4404 14.6164 15.3136 14.5639 15.1815 14.5637C15.0493 14.5636 14.9224 14.6158 14.8286 14.7089C14.7348 14.802 14.6817 14.9285 14.6809 15.0607C14.6801 15.1929 14.7317 15.32 14.8244 15.4143C14.9767 15.5677 16.5395 17.1298 18.3494 18.9387L20.7284 21.3168C20.7349 21.3242 20.7418 21.3315 20.7489 21.3386C20.7643 21.354 20.7802 21.3691 20.7956 21.3841C21.4331 22.0216 22.0238 22.612 22.5058 23.094C22.9783 23.5669 23.0142 24.3002 22.5855 24.7288V24.729ZM29.7185 16.1301C27.5358 18.317 25.265 20.5916 23.3356 22.5208C23.2965 22.4752 23.2559 22.4303 23.2126 22.3871C23.0795 22.2539 22.938 22.1124 22.7896 21.964C23.1714 21.8842 23.5217 21.6949 23.7977 21.4192L23.8014 21.4155C24.6157 20.5973 24.579 19.2326 23.7185 18.371L17.206 11.8496L17.656 11.3987C17.7288 11.3258 17.7774 11.2322 17.7949 11.1307C17.8125 11.0292 17.7983 10.9247 17.7542 10.8316C17.7102 10.7384 17.6384 10.6612 17.5488 10.6104C17.4592 10.5596 17.356 10.5377 17.2535 10.5478L15.2222 10.747C14.9705 10.7754 14.7156 10.7516 14.4734 10.6772C14.2312 10.6028 14.007 10.4793 13.8146 10.3145C13.6285 10.1513 13.478 9.95162 13.3725 9.72777C13.267 9.50393 13.2087 9.26075 13.2013 9.01339C13.2013 9.00495 13.2004 8.99646 13.1996 8.98808L13.1787 8.76414L16.6407 7.67239L16.6425 7.67189L22.3577 5.86964C23.7764 5.42208 25.2733 5.75952 26.2639 6.75008L29.9359 10.422C31.4484 11.9342 31.3508 14.4949 29.7185 16.1301Z" fill="#3A6148"/>
</g>
<defs>
<clipPath id="clip0_97_390">
<rect width="32" height="32" fill="white" transform="translate(0.5)"/>
</clipPath>
</defs>
</svg>
