<svg width="33" height="32" viewBox="0 0 33 32" fill="none" xmlns="http://www.w3.org/2000/svg">
<g clip-path="url(#clip0_97_372)">
<path d="M1.1665 14L6.63317 15.0667C7.29984 15.2 7.83317 15.8667 7.69984 16.5333L6.7665 23.4667C6.63317 24.1333 6.09984 24.6667 5.43317 24.6667H1.1665V14Z" stroke="#3A6148" stroke-linecap="round" stroke-linejoin="round"/>
<path d="M7.83301 16.6667C9.16634 16.2667 10.4997 16 11.833 16C13.9663 16 15.1663 17.4667 17.833 18C20.4997 18.5333 22.4997 19.2 22.4997 20.6667C22.4997 22.1333 20.3663 22.8 13.1663 20.6667" stroke="#3A6148" stroke-linecap="round" stroke-linejoin="round"/>
<path d="M22.4998 21.3333C24.4998 20.6667 26.4998 20.2667 28.4998 20C30.0998 20 31.8332 20.6667 31.8332 22C29.5665 23.0667 21.5665 27.3333 18.4998 27.3333C15.4332 27.3333 7.1665 23.3333 7.1665 23.3333" stroke="#3A6148" stroke-linecap="round" stroke-linejoin="round"/>
<path d="M25.1665 12.6665C27.3756 12.6665 29.1665 10.8756 29.1665 8.6665C29.1665 6.45736 27.3756 4.6665 25.1665 4.6665C22.9574 4.6665 21.1665 6.45736 21.1665 8.6665C21.1665 10.8756 22.9574 12.6665 25.1665 12.6665Z" stroke="#3A6148" stroke-linecap="round" stroke-linejoin="round"/>
<path d="M21.4332 7.33301H21.1665C18.8998 7.33301 17.1665 9.06634 17.1665 11.333C17.1665 13.5997 18.8998 15.333 21.1665 15.333C22.8998 15.333 24.3665 14.2663 24.8998 12.6663" stroke="#3A6148" stroke-linecap="round" stroke-linejoin="round"/>
<path d="M25.1665 7.33301V9.99967" stroke="#3A6148" stroke-linecap="round" stroke-linejoin="round"/>
<path d="M21.1665 12.6667V10" stroke="#3A6148" stroke-linecap="round" stroke-linejoin="round"/>
</g>
<defs>
<clipPath id="clip0_97_372">
<rect width="32" height="32" fill="white" transform="translate(0.5)"/>
</clipPath>
</defs>
</svg>
