<svg width="33" height="32" viewBox="0 0 33 32" fill="none" xmlns="http://www.w3.org/2000/svg">
<path d="M16.7625 1.25467C13.5195 1.19804 10.3512 2.23028 7.7639 4.18632C5.17662 6.14235 3.31979 8.90926 2.49019 12.0448C1.66059 15.1804 1.90613 18.5036 3.18757 21.4832C4.469 24.4628 6.71233 26.9268 9.559 28.4813C9.61657 28.5126 9.67974 28.5323 9.74489 28.5391C9.81005 28.546 9.87592 28.5399 9.93874 28.5213C10.0016 28.5027 10.0601 28.4719 10.111 28.4307C10.1619 28.3895 10.2042 28.3386 10.2355 28.281C10.2668 28.2234 10.2864 28.1604 10.2933 28.0952C10.3001 28.03 10.2941 27.9641 10.2755 27.9013C10.2569 27.8385 10.2261 27.7799 10.1848 27.729C10.1436 27.6781 10.0928 27.6358 10.0352 27.6046C7.37531 26.1632 5.27703 23.8697 4.07733 21.0924C2.87764 18.3151 2.64615 15.2152 3.42004 12.2905C4.19393 9.36584 5.9283 6.78611 8.3446 4.96565C10.7609 3.14519 13.7189 2.18965 16.7436 2.25245C19.7633 2.30827 22.6772 3.37513 25.019 5.28237C27.3609 7.1896 28.9956 9.82706 29.6617 12.773C30.3277 15.7189 29.9867 18.8031 28.6931 21.5323C27.3995 24.2615 25.2281 26.478 22.526 27.8275C22.4672 27.857 22.4148 27.8979 22.3718 27.9477C22.3287 27.9975 22.2959 28.0552 22.2752 28.1177C22.2545 28.1802 22.2463 28.246 22.2511 28.3117C22.2559 28.3773 22.2735 28.4415 22.3031 28.5003C22.3326 28.5591 22.3734 28.6114 22.4232 28.6545C22.473 28.6975 22.5308 28.7303 22.5932 28.751C22.6557 28.7717 22.7216 28.78 22.7873 28.7752C22.8529 28.7705 22.917 28.7527 22.9758 28.7232C25.8783 27.2735 28.2109 24.8924 29.6003 21.9605C30.9898 19.0287 31.356 15.7156 30.6403 12.5511C29.9246 9.38654 28.1684 6.55345 25.6525 4.50488C23.1366 2.4563 20.0064 1.31428 16.7625 1.25467Z" fill="#3A6148"/>
<path d="M16.8267 3.25414C14.1199 3.18449 11.4637 3.99547 9.2574 5.56516C7.05113 7.13484 5.41409 9.37831 4.59244 11.9583C3.7708 14.5383 3.80896 17.3154 4.70118 19.8718C5.59341 22.4283 7.29148 24.626 9.54004 26.1344C9.59464 26.1709 9.65588 26.1963 9.72028 26.2091C9.78468 26.2219 9.85097 26.2219 9.91537 26.2091C9.97977 26.1963 10.041 26.1709 10.0956 26.1344C10.1502 26.098 10.1971 26.0511 10.2336 25.9965C10.27 25.9419 10.2954 25.8806 10.3082 25.8162C10.321 25.7518 10.321 25.6856 10.3082 25.6212C10.2954 25.5568 10.27 25.4955 10.2336 25.4409C10.1971 25.3863 10.1502 25.3395 10.0956 25.303C8.02432 23.9168 6.45957 21.8951 5.63707 19.5424C4.81456 17.1898 4.77886 14.6335 5.53533 12.2588C6.2918 9.88402 7.79948 7.81944 9.83125 6.37598C11.863 4.93251 14.3088 4.18833 16.8002 4.25561C19.2923 4.31865 21.6964 5.19005 23.6501 6.73837C25.6039 8.28668 27.0015 10.4281 27.6322 12.8398C28.263 15.2516 28.0928 17.803 27.1472 20.1096C26.2017 22.4162 24.532 24.3529 22.3899 25.628C22.2762 25.6957 22.1939 25.8057 22.1613 25.934C22.1287 26.0623 22.1484 26.1983 22.2161 26.3121C22.2837 26.4258 22.3938 26.5081 22.5221 26.5407C22.6504 26.5733 22.7864 26.5535 22.9001 26.4859C25.222 25.0962 27.0306 22.991 28.0542 20.4861C29.0779 17.9813 29.2615 15.2119 28.5775 12.5938C27.8935 9.97572 26.3787 7.65011 24.2606 5.96607C22.1425 4.28203 19.5316 3.33047 16.8267 3.25414Z" fill="#3A6148"/>
<path d="M16.7888 6.7575C14.5325 6.68192 12.2535 7.45284 10.4583 9.07798C8.72987 10.6449 7.67689 12.8214 7.5211 15.1491C7.3653 17.4769 8.11885 19.7742 9.62307 21.5575C9.66525 21.6076 9.7169 21.649 9.77506 21.6792C9.83322 21.7093 9.89675 21.7277 9.96202 21.7333C10.0273 21.7389 10.093 21.7316 10.1555 21.7118C10.218 21.692 10.2759 21.6601 10.326 21.6179C10.3762 21.5757 10.4175 21.5241 10.4477 21.4659C10.4778 21.4078 10.4962 21.3442 10.5019 21.279C10.5075 21.2137 10.5002 21.148 10.4804 21.0855C10.4606 21.0231 10.4287 20.9651 10.3865 20.9149C9.04574 19.3306 8.37378 17.287 8.51272 15.2161C8.65167 13.1453 9.59064 11.2098 11.131 9.81879C12.667 8.42531 14.6847 7.68367 16.7575 7.75067C18.8303 7.81768 20.7958 8.68807 22.2386 10.1778C25.2432 13.2769 25.2546 18.1825 22.2651 21.2929C22.2155 21.3397 22.176 21.3962 22.1489 21.459C22.1218 21.5217 22.1077 21.5894 22.1075 21.6578C22.1073 21.7263 22.1209 21.794 22.1476 21.8569C22.1742 21.9198 22.2134 21.9767 22.2626 22.0238C22.3118 22.071 22.3701 22.1075 22.4338 22.1312C22.4975 22.1549 22.5654 22.1652 22.6332 22.1615C22.701 22.1578 22.7673 22.1403 22.8282 22.1098C22.889 22.0794 22.943 22.0368 22.9869 21.9846C24.1885 20.7288 25.0009 19.1522 25.3264 17.4449C25.6519 15.7376 25.4764 13.9727 24.8211 12.3629C24.1659 10.7532 23.0589 9.36744 21.6336 8.3728C20.2083 7.37817 18.5257 6.81719 16.7888 6.7575Z" fill="#3A6148"/>
<path d="M15.5002 9.24805C15.1029 9.25003 14.7224 9.40872 14.4414 9.68967C14.1605 9.97063 14.0018 10.3512 13.9998 10.7485C13.9998 11.5724 14.6801 12.2488 15.5002 12.2488H17.4995C18.3196 12.2488 18.9999 11.5686 18.9999 10.7485C18.9979 10.3512 18.8392 9.97063 18.5582 9.68967C18.2773 9.40872 17.8968 9.25003 17.4995 9.24805H15.5002ZM15.5002 10.2495H17.4995C17.5653 10.2485 17.6306 10.2607 17.6916 10.2854C17.7526 10.3101 17.808 10.3468 17.8545 10.3933C17.901 10.4399 17.9378 10.4953 17.9625 10.5563C17.9872 10.6173 17.9994 10.6827 17.9984 10.7485C17.9999 10.8146 17.9881 10.8802 17.9636 10.9417C17.9391 11.0031 17.9025 11.059 17.8559 11.1059C17.8093 11.1528 17.7537 11.19 17.6925 11.2149C17.6312 11.2398 17.5656 11.2521 17.4995 11.2511H15.4964C15.4303 11.2521 15.3646 11.2398 15.3034 11.2149C15.2422 11.19 15.1866 11.1528 15.14 11.1059C15.0934 11.059 15.0568 11.0031 15.0323 10.9417C15.0078 10.8802 14.996 10.8146 14.9975 10.7485C14.9965 10.6824 15.0088 10.6166 15.0338 10.5554C15.0587 10.4942 15.0958 10.4385 15.1427 10.392C15.1896 10.3454 15.2455 10.3088 15.3069 10.2844C15.3683 10.2599 15.4341 10.248 15.5002 10.2495ZM20.659 20.7562L20.0203 21.5272C21.2751 22.5703 21.9969 24.1198 21.9969 25.7525V30.7489H22.9985V25.7488C22.9985 23.8213 22.1406 21.9959 20.659 20.76V20.7562ZM11.838 20.7676C11.1065 21.3771 10.5178 22.1398 10.1135 23.0018C9.70928 23.8639 9.49933 24.8042 9.49854 25.7563V30.7527H10.5001V25.7563C10.5001 24.1274 11.2257 22.5816 12.4767 21.5385L11.838 20.7676Z" fill="#3A6148"/>
<path d="M15.9989 17.752C13.5197 17.752 11.5015 19.7702 11.5015 22.2494V27.2495C11.5015 28.0734 12.178 28.75 12.9981 28.75H19.4986C20.3225 28.75 20.999 28.0697 20.999 27.2495V22.2494C20.999 19.7702 18.9771 17.752 16.5016 17.752H15.9989ZM15.9989 18.7496H16.4978C18.4366 18.7496 19.9975 20.3106 19.9975 22.2494V27.2495C19.9985 27.3153 19.9863 27.3806 19.9616 27.4416C19.9369 27.5026 19.9002 27.558 19.8537 27.6045C19.8071 27.6511 19.7517 27.6878 19.6907 27.7125C19.6298 27.7372 19.5644 27.7494 19.4986 27.7484H12.9981C12.9323 27.7494 12.867 27.7372 12.806 27.7125C12.745 27.6878 12.6896 27.6511 12.6431 27.6045C12.5965 27.558 12.5598 27.5026 12.5351 27.4416C12.5104 27.3806 12.4982 27.3153 12.4992 27.2495V22.2494C12.4992 20.3106 14.0601 18.7496 15.9989 18.7496Z" fill="#3A6148"/>
<path fill-rule="evenodd" clip-rule="evenodd" d="M15.3755 20.1968V21.1983H17.3748V20.1968H15.3755Z" fill="#3A6148"/>
</svg>
