<svg width="33" height="32" viewBox="0 0 33 32" fill="none" xmlns="http://www.w3.org/2000/svg">
<g clip-path="url(#clip0_97_399)">
<path d="M26.5433 25.2829H7.21659V5.9562C7.21659 5.54432 6.86808 5.1958 6.4562 5.1958C6.04432 5.1958 5.6958 5.54432 5.6958 5.9562V26.0433C5.6958 26.4552 6.04432 26.8037 6.4562 26.8037H26.5433C26.9552 26.8037 27.3037 26.4552 27.3037 26.0433C27.3037 25.6314 26.9552 25.2829 26.5433 25.2829Z" fill="#3A6148"/>
<path d="M14.5989 22.3365V11.3742C14.5989 10.9623 14.2504 10.6138 13.8385 10.6138C13.4266 10.6138 13.0781 10.9623 13.0781 11.3742V22.3682C13.0781 22.7801 13.4266 23.1286 13.8385 23.1286C14.2504 23.1286 14.5989 22.7801 14.5989 22.3365ZM10.9236 22.3365V11.3742C10.9236 10.9623 10.5751 10.6138 10.1632 10.6138C9.75135 10.6138 9.40283 10.9623 9.40283 11.3742V22.3682C9.40283 22.7801 9.75135 23.1286 10.1632 23.1286C10.5751 23.0969 10.9236 22.7801 10.9236 22.3365ZM21.9811 22.3365V11.3742C21.9811 10.9623 21.6325 10.6138 21.2207 10.6138C20.8088 10.6138 20.4603 10.9623 20.4603 11.3742V22.3682C20.4603 22.7801 20.8088 23.1286 21.2207 23.1286C21.6325 23.0969 21.9811 22.7801 21.9811 22.3365ZM25.6563 22.3365V16.8554C25.6563 16.4435 25.3078 16.095 24.8959 16.095C24.484 16.095 24.1355 16.4435 24.1355 16.8554V22.3365C24.1355 22.7484 24.484 23.0969 24.8959 23.0969C25.3078 23.0969 25.6563 22.7801 25.6563 22.3365ZM18.2741 22.3365V16.8554C18.2741 16.4435 17.9256 16.095 17.5137 16.095C17.1018 16.095 16.7533 16.4435 16.7533 16.8554V22.3365C16.7533 22.7484 17.1018 23.0969 17.5137 23.0969C17.9256 23.0969 18.2741 22.7801 18.2741 22.3365Z" fill="#3A6148"/>
</g>
<defs>
<clipPath id="clip0_97_399">
<rect width="32" height="32" fill="white" transform="translate(0.5)"/>
</clipPath>
</defs>
</svg>
