<svg width="33" height="32" viewBox="0 0 33 32" fill="none" xmlns="http://www.w3.org/2000/svg">
<path d="M30.1431 28.4286C30.1387 28.5078 30.105 28.5825 30.0487 28.6382L29.1399 29.547C29.0932 29.5936 29.0338 29.6253 28.9691 29.6381C28.9045 29.6509 28.8375 29.6441 28.7766 29.6188C28.7158 29.5934 28.6638 29.5505 28.6274 29.4956C28.5909 29.4407 28.5716 29.3762 28.5719 29.3102C28.5718 29.2665 28.5804 29.2233 28.5972 29.1829C28.6139 29.1425 28.6385 29.1059 28.6695 29.075L29.0071 28.7374L4.15587 28.675C4.0676 28.675 3.98295 28.64 3.92054 28.5776C3.85813 28.5152 3.82307 28.4305 3.82307 28.3422L3.76227 3.49104L3.42467 3.82864C3.36229 3.89229 3.27718 3.92856 3.18806 3.92946C3.09894 3.93036 3.01312 3.89582 2.94947 3.83344C2.88582 3.77106 2.84955 3.68595 2.84865 3.59683C2.84775 3.50772 2.88229 3.42189 2.94467 3.35824L3.85987 2.45424L3.87747 2.43664C3.92826 2.39356 3.99056 2.3663 4.05667 2.35824C4.0774 2.35585 4.09834 2.35585 4.11907 2.35824C4.19934 2.36321 4.27502 2.39735 4.33187 2.45424L5.23907 3.35984C5.27058 3.39083 5.29569 3.42773 5.31295 3.46842C5.3302 3.50912 5.33928 3.55281 5.33965 3.59701C5.34002 3.64121 5.33168 3.68505 5.31511 3.72603C5.29854 3.76701 5.27406 3.80432 5.24307 3.83584C5.21208 3.86736 5.17518 3.89246 5.13449 3.90972C5.09379 3.92698 5.0501 3.93605 5.0059 3.93642C4.96169 3.93679 4.91785 3.92846 4.87688 3.91189C4.8359 3.89531 4.79858 3.87083 4.76707 3.83984L4.42947 3.50224L4.49027 28.0158L29.0039 28.0766L28.6599 27.7326C28.5962 27.6703 28.56 27.5852 28.5591 27.496C28.5582 27.4069 28.5927 27.3211 28.6551 27.2574C28.7174 27.1938 28.8026 27.1575 28.8917 27.1566C28.9808 27.1557 29.0666 27.1903 29.1303 27.2526L30.0391 28.1614L30.0551 28.1774C30.0989 28.2273 30.1267 28.2892 30.1351 28.355C30.1409 28.3791 30.1436 28.4039 30.1431 28.4286ZM5.91587 20.3038V15.1614C5.91566 15.1176 5.92411 15.0742 5.94074 15.0336C5.95737 14.993 5.98185 14.9562 6.01277 14.9251C6.0437 14.894 6.08046 14.8694 6.12094 14.8525C6.16142 14.8357 6.20483 14.827 6.24867 14.827H7.04867V10.4814C7.05452 10.397 7.09221 10.3178 7.15413 10.2601C7.21605 10.2023 7.29758 10.1702 7.38227 10.1702C7.46695 10.1702 7.54849 10.2023 7.6104 10.2601C7.67232 10.3178 7.71001 10.397 7.71587 10.4814V14.827H8.49987C8.54384 14.8268 8.58742 14.8353 8.62809 14.8521C8.66875 14.8688 8.7057 14.8934 8.7368 14.9245C8.76789 14.9556 8.79251 14.9926 8.80924 15.0332C8.82597 15.0739 8.83448 15.1175 8.83427 15.1614V20.3038C8.83469 20.3479 8.82634 20.3917 8.80971 20.4326C8.79307 20.4734 8.76848 20.5105 8.73737 20.5418C8.70625 20.5731 8.66923 20.5978 8.62846 20.6147C8.58769 20.6315 8.54398 20.6401 8.49987 20.6398H7.70787V24.9854C7.70201 25.0699 7.66432 25.149 7.6024 25.2068C7.54049 25.2646 7.45895 25.2967 7.37427 25.2967C7.28958 25.2967 7.20805 25.2646 7.14613 25.2068C7.08421 25.149 7.04652 25.0699 7.04067 24.9854V20.6398H6.24067C6.15324 20.6377 6.07015 20.6013 6.00937 20.5384C5.94859 20.4756 5.915 20.3913 5.91587 20.3038ZM6.57987 19.971H8.16387V15.491H6.57987V19.971ZM15.5575 21.5902V16.4462C15.5575 16.358 15.5925 16.2733 15.6549 16.2109C15.7174 16.1485 15.802 16.1134 15.8903 16.1134H16.6903V11.7678C16.6961 11.6834 16.7338 11.6042 16.7957 11.5465C16.8576 11.4887 16.9392 11.4566 17.0239 11.4566C17.1086 11.4566 17.1901 11.4887 17.252 11.5465C17.3139 11.6042 17.3516 11.6834 17.3575 11.7678V16.1134H18.1575C18.2457 16.1134 18.3304 16.1485 18.3928 16.2109C18.4552 16.2733 18.4903 16.358 18.4903 16.4462V21.5902C18.4903 21.6785 18.4552 21.7632 18.3928 21.8256C18.3304 21.888 18.2457 21.923 18.1575 21.923H17.3575V26.2686C17.3516 26.3531 17.3139 26.4322 17.252 26.49C17.1901 26.5478 17.1086 26.5799 17.0239 26.5799C16.9392 26.5799 16.8576 26.5478 16.7957 26.49C16.7338 26.4322 16.6961 26.3531 16.6903 26.2686V21.9198H15.8903C15.8028 21.9194 15.7191 21.8846 15.6571 21.8229C15.5951 21.7613 15.5599 21.6777 15.5591 21.5902H15.5575ZM16.2247 21.2558H17.8071V16.7758H16.2263L16.2247 21.2558ZM10.7399 16.4462V11.3022C10.7399 11.2584 10.7485 11.215 10.7654 11.1745C10.7822 11.134 10.8068 11.0973 10.8379 11.0663C10.869 11.0354 10.9059 11.0109 10.9464 10.9943C10.987 10.9777 11.0304 10.9692 11.0743 10.9694H11.8599V6.62384C11.8657 6.53936 11.9034 6.46024 11.9653 6.40246C12.0272 6.34469 12.1088 6.31256 12.1935 6.31256C12.2782 6.31256 12.3597 6.34469 12.4216 6.40246C12.4835 6.46024 12.5212 6.53936 12.5271 6.62384V10.9694H13.3191C13.4073 10.9694 13.492 11.0045 13.5544 11.0669C13.6168 11.1293 13.6519 11.214 13.6519 11.3022V16.4462C13.6519 16.5345 13.6168 16.6192 13.5544 16.6816C13.492 16.744 13.4073 16.779 13.3191 16.779H12.5287V21.1198C12.5287 21.2085 12.4934 21.2936 12.4307 21.3563C12.368 21.419 12.283 21.4542 12.1943 21.4542C12.1056 21.4542 12.0205 21.419 11.9578 21.3563C11.8951 21.2936 11.8599 21.2085 11.8599 21.1198V16.779H11.0711C10.9831 16.7786 10.8988 16.7434 10.8368 16.681C10.7747 16.6186 10.7399 16.5342 10.7399 16.4462ZM11.4071 16.1134H12.9911V11.6334H11.4071V16.1134ZM25.2055 19.6606V14.5182C25.2059 14.4297 25.2413 14.3449 25.3039 14.2822C25.3665 14.2196 25.4513 14.1843 25.5399 14.1838H26.3399V9.83984C26.3399 9.75158 26.3749 9.66693 26.4373 9.60452C26.4998 9.5421 26.5844 9.50704 26.6727 9.50704C26.7609 9.50704 26.8456 9.5421 26.908 9.60452C26.9704 9.66693 27.0055 9.75158 27.0055 9.83984V14.1838H27.7975C27.886 14.1843 27.9708 14.2196 28.0335 14.2822C28.0961 14.3449 28.1314 14.4297 28.1319 14.5182V19.6606C28.1314 19.7492 28.0961 19.834 28.0335 19.8966C27.9708 19.9593 27.886 19.9946 27.7975 19.995H27.0055V24.339C27.0055 24.4273 26.9704 24.512 26.908 24.5744C26.8456 24.6368 26.7609 24.6718 26.6727 24.6718C26.5844 24.6718 26.4998 24.6368 26.4373 24.5744C26.3749 24.512 26.3399 24.4273 26.3399 24.339V19.9998H25.5399C25.4953 20.0001 25.4512 19.9914 25.4101 19.9744C25.3689 19.9574 25.3315 19.9324 25.3001 19.9009C25.2687 19.8693 25.2439 19.8318 25.2271 19.7906C25.2103 19.7493 25.2018 19.7052 25.2023 19.6606H25.2055ZM25.8727 19.3278H27.4567V14.8478H25.8727V19.3278ZM20.3847 14.5182V9.37424C20.3847 9.28598 20.4197 9.20133 20.4821 9.13892C20.5446 9.0765 20.6292 9.04144 20.7175 9.04144H21.5095V4.69584C21.5153 4.61136 21.553 4.53224 21.6149 4.47446C21.6768 4.41669 21.7584 4.38456 21.8431 4.38456C21.9278 4.38456 22.0093 4.41669 22.0712 4.47446C22.1331 4.53224 22.1708 4.61136 22.1767 4.69584V9.04144H22.9687C23.0569 9.04144 23.1416 9.0765 23.204 9.13892C23.2664 9.20133 23.3015 9.28598 23.3015 9.37424V14.5182C23.3015 14.6065 23.2664 14.6912 23.204 14.7536C23.1416 14.816 23.0569 14.851 22.9687 14.851H22.1767V19.1998C22.1708 19.2843 22.1331 19.3634 22.0712 19.4212C22.0093 19.479 21.9278 19.5111 21.8431 19.5111C21.7584 19.5111 21.6768 19.479 21.6149 19.4212C21.553 19.3634 21.5153 19.2843 21.5095 19.1998V14.851H20.7175C20.6735 14.8515 20.6299 14.8432 20.5891 14.8266C20.5484 14.8101 20.5113 14.7856 20.4801 14.7547C20.4488 14.7238 20.424 14.6869 20.4071 14.6463C20.3902 14.6058 20.3815 14.5622 20.3815 14.5182H20.3847ZM21.0503 14.1838H22.6343V9.70384H21.0503V14.1838Z" fill="#3A6148"/>
</svg>
